<svg xmlns="http://www.w3.org/2000/svg" width="800" height="600" viewBox="0 0 800 600">
  <defs>
    <linearGradient id="bg" x1="0%" y1="0%" x2="100%" y2="100%">
      <stop offset="0%" style="stop-color:#e8f4f8;stop-opacity:1" />
      <stop offset="100%" style="stop-color:#b8d4e3;stop-opacity:1" />
    </linearGradient>
  </defs>
  <rect width="800" height="600" fill="url(#bg)"/>
  <!-- !Ìn” -->
  <path d="M 100 100 L 700 100 L 700 500 L 100 500 Z" fill="none" stroke="#667eea" stroke-width="3" stroke-dasharray="10,5"/>
  <!-- ˙Q: -->
  <rect x="150" y="150" width="80" height="60" fill="#667eea" opacity="0.7" rx="5"/>
  <rect x="280" y="140" width="100" height="80" fill="#667eea" opacity="0.7" rx="5"/>
  <rect x="450" y="150" width="70" height="70" fill="#667eea" opacity="0.7" rx="5"/>
  <rect x="160" y="280" width="90" height="50" fill="#38b764" opacity="0.7" rx="5"/>
  <rect x="320" y="270" width="120" height="60" fill="#f97316" opacity="0.7" rx="5"/>
  <rect x="500" y="280" width="80" height="60" fill="#3b82f6" opacity="0.7" rx="5"/>
  <rect x="150" y="400" width="100" height="60" fill="#38b764" opacity="0.7" rx="5"/>
  <rect x="350" y="400" width="80" height="50" fill="#667eea" opacity="0.7" rx="5"/>
  <rect x="520" y="390" width="90" height="70" fill="#f97316" opacity="0.7" rx="5"/>
  <!-- SÔ -->
  <line x1="400" y1="100" x2="400" y2="500" stroke="#94a3b8" stroke-width="8"/>
  <line x1="100" y1="300" x2="700" y2="300" stroke="#94a3b8" stroke-width="8"/>
  <!-- áW -->
  <text x="400" y="300" text-anchor="middle" font-size="24" font-weight="bold" fill="#475569">!Ì:˛</text>
  <text x="400" y="330" text-anchor="middle" font-size="14" fill="#64748b">OFFLINE MODE</text>
  <text x="400" y="550" text-anchor="middle" font-size="12" fill="#94a3b8">ﬁ•Q‹>:Ê∆0˛</text>
</svg>
